<mxfile host="app.diagrams.net" modified="2024-07-06T06:52:02.701Z" agent="Mozilla/5.0 (X11; Linux x86_64; rv:109.0) Gecko/20100101 Firefox/115.0" etag="SR51XKrCDAooPAXRdlYh" version="24.6.4" type="github">
  <diagram id="C5RBs43oDa-KdzZeNtuy" name="Page-1">
    <mxGraphModel dx="1960" dy="2426" grid="1" gridSize="10" guides="1" tooltips="1" connect="1" arrows="1" fold="1" page="1" pageScale="1" pageWidth="827" pageHeight="1169" math="0" shadow="0">
      <root>
        <mxCell id="WIyWlLk6GJQsqaUBKTNV-0" />
        <mxCell id="WIyWlLk6GJQsqaUBKTNV-1" parent="WIyWlLk6GJQsqaUBKTNV-0" />
        <mxCell id="Y-gkaW2iaEDLu9Q06Ku3-40" style="edgeStyle=elbowEdgeStyle;shape=connector;curved=0;rounded=0;orthogonalLoop=1;jettySize=auto;elbow=vertical;html=1;shadow=0;strokeColor=default;strokeWidth=1;align=center;verticalAlign=middle;fontFamily=Helvetica;fontSize=11;fontColor=default;labelBackgroundColor=default;endArrow=block;endFill=1;startSize=6;endSize=10;" parent="WIyWlLk6GJQsqaUBKTNV-1" source="Y-gkaW2iaEDLu9Q06Ku3-0" target="Y-gkaW2iaEDLu9Q06Ku3-6" edge="1">
          <mxGeometry relative="1" as="geometry" />
        </mxCell>
        <mxCell id="Y-gkaW2iaEDLu9Q06Ku3-117" style="edgeStyle=elbowEdgeStyle;shape=connector;curved=0;rounded=0;orthogonalLoop=1;jettySize=auto;elbow=vertical;html=1;shadow=0;strokeColor=default;strokeWidth=1;align=center;verticalAlign=middle;fontFamily=Helvetica;fontSize=11;fontColor=default;labelBackgroundColor=default;startArrow=none;startFill=0;startSize=10;endArrow=block;endFill=1;endSize=10;" parent="WIyWlLk6GJQsqaUBKTNV-1" source="Y-gkaW2iaEDLu9Q06Ku3-0" target="Y-gkaW2iaEDLu9Q06Ku3-113" edge="1">
          <mxGeometry relative="1" as="geometry" />
        </mxCell>
        <mxCell id="Y-gkaW2iaEDLu9Q06Ku3-0" value="Piece " style="swimlane;fontStyle=0;align=center;verticalAlign=top;childLayout=stackLayout;horizontal=1;startSize=26;horizontalStack=0;resizeParent=1;resizeLast=0;collapsible=1;marginBottom=0;rounded=0;shadow=0;strokeWidth=1;" parent="WIyWlLk6GJQsqaUBKTNV-1" vertex="1">
          <mxGeometry x="250" y="880" width="160" height="150" as="geometry">
            <mxRectangle x="130" y="380" width="160" height="26" as="alternateBounds" />
          </mxGeometry>
        </mxCell>
        <mxCell id="Y-gkaW2iaEDLu9Q06Ku3-3" value="" style="line;html=1;strokeWidth=1;align=left;verticalAlign=middle;spacingTop=-1;spacingLeft=3;spacingRight=3;rotatable=0;labelPosition=right;points=[];portConstraint=eastwest;" parent="Y-gkaW2iaEDLu9Q06Ku3-0" vertex="1">
          <mxGeometry y="26" width="160" height="8" as="geometry" />
        </mxCell>
        <mxCell id="Y-gkaW2iaEDLu9Q06Ku3-6" value="&lt;&lt;enum&gt;&gt;&#xa;Color&#xa;" style="swimlane;fontStyle=0;align=center;verticalAlign=top;childLayout=stackLayout;horizontal=1;startSize=40;horizontalStack=0;resizeParent=1;resizeLast=0;collapsible=1;marginBottom=0;rounded=0;shadow=0;strokeWidth=1;" parent="WIyWlLk6GJQsqaUBKTNV-1" vertex="1">
          <mxGeometry x="580" y="810" width="160" height="120" as="geometry">
            <mxRectangle x="130" y="380" width="160" height="26" as="alternateBounds" />
          </mxGeometry>
        </mxCell>
        <mxCell id="Y-gkaW2iaEDLu9Q06Ku3-7" value="+ WHITE" style="text;align=left;verticalAlign=top;spacingLeft=4;spacingRight=4;overflow=hidden;rotatable=0;points=[[0,0.5],[1,0.5]];portConstraint=eastwest;" parent="Y-gkaW2iaEDLu9Q06Ku3-6" vertex="1">
          <mxGeometry y="40" width="160" height="26" as="geometry" />
        </mxCell>
        <mxCell id="Y-gkaW2iaEDLu9Q06Ku3-39" value="+ BLACK" style="text;align=left;verticalAlign=top;spacingLeft=4;spacingRight=4;overflow=hidden;rotatable=0;points=[[0,0.5],[1,0.5]];portConstraint=eastwest;" parent="Y-gkaW2iaEDLu9Q06Ku3-6" vertex="1">
          <mxGeometry y="66" width="160" height="26" as="geometry" />
        </mxCell>
        <mxCell id="Y-gkaW2iaEDLu9Q06Ku3-9" value="" style="line;html=1;strokeWidth=1;align=left;verticalAlign=middle;spacingTop=-1;spacingLeft=3;spacingRight=3;rotatable=0;labelPosition=right;points=[];portConstraint=eastwest;" parent="Y-gkaW2iaEDLu9Q06Ku3-6" vertex="1">
          <mxGeometry y="92" width="160" height="8" as="geometry" />
        </mxCell>
        <mxCell id="Y-gkaW2iaEDLu9Q06Ku3-54" style="edgeStyle=elbowEdgeStyle;shape=connector;curved=0;rounded=0;orthogonalLoop=1;jettySize=auto;elbow=vertical;html=1;shadow=0;strokeColor=default;strokeWidth=1;align=center;verticalAlign=middle;fontFamily=Helvetica;fontSize=11;fontColor=default;labelBackgroundColor=default;startSize=6;endArrow=block;endFill=1;endSize=10;" parent="WIyWlLk6GJQsqaUBKTNV-1" source="Y-gkaW2iaEDLu9Q06Ku3-42" target="Y-gkaW2iaEDLu9Q06Ku3-6" edge="1">
          <mxGeometry relative="1" as="geometry">
            <Array as="points">
              <mxPoint x="500" y="640" />
            </Array>
          </mxGeometry>
        </mxCell>
        <mxCell id="Y-gkaW2iaEDLu9Q06Ku3-58" style="edgeStyle=elbowEdgeStyle;shape=connector;curved=0;rounded=0;orthogonalLoop=1;jettySize=auto;elbow=vertical;html=1;shadow=0;strokeColor=default;strokeWidth=1;align=center;verticalAlign=middle;fontFamily=Helvetica;fontSize=11;fontColor=default;labelBackgroundColor=default;startSize=10;endArrow=block;endFill=1;endSize=10;startArrow=block;startFill=1;" parent="WIyWlLk6GJQsqaUBKTNV-1" source="Y-gkaW2iaEDLu9Q06Ku3-42" target="Y-gkaW2iaEDLu9Q06Ku3-0" edge="1">
          <mxGeometry relative="1" as="geometry" />
        </mxCell>
        <mxCell id="Y-gkaW2iaEDLu9Q06Ku3-42" value="Square" style="swimlane;fontStyle=0;align=center;verticalAlign=top;childLayout=stackLayout;horizontal=1;startSize=26;horizontalStack=0;resizeParent=1;resizeLast=0;collapsible=1;marginBottom=0;rounded=0;shadow=0;strokeWidth=1;" parent="WIyWlLk6GJQsqaUBKTNV-1" vertex="1">
          <mxGeometry x="250" y="550" width="160" height="190" as="geometry">
            <mxRectangle x="130" y="380" width="160" height="26" as="alternateBounds" />
          </mxGeometry>
        </mxCell>
        <mxCell id="Y-gkaW2iaEDLu9Q06Ku3-43" value="- coordinateX: Integer" style="text;align=left;verticalAlign=top;spacingLeft=4;spacingRight=4;overflow=hidden;rotatable=0;points=[[0,0.5],[1,0.5]];portConstraint=eastwest;" parent="Y-gkaW2iaEDLu9Q06Ku3-42" vertex="1">
          <mxGeometry y="26" width="160" height="26" as="geometry" />
        </mxCell>
        <mxCell id="Y-gkaW2iaEDLu9Q06Ku3-46" value="- coordinateY: Integer" style="text;align=left;verticalAlign=top;spacingLeft=4;spacingRight=4;overflow=hidden;rotatable=0;points=[[0,0.5],[1,0.5]];portConstraint=eastwest;" parent="Y-gkaW2iaEDLu9Q06Ku3-42" vertex="1">
          <mxGeometry y="52" width="160" height="26" as="geometry" />
        </mxCell>
        <mxCell id="Y-gkaW2iaEDLu9Q06Ku3-47" value="- file: String " style="text;align=left;verticalAlign=top;spacingLeft=4;spacingRight=4;overflow=hidden;rotatable=0;points=[[0,0.5],[1,0.5]];portConstraint=eastwest;" parent="Y-gkaW2iaEDLu9Q06Ku3-42" vertex="1">
          <mxGeometry y="78" width="160" height="26" as="geometry" />
        </mxCell>
        <mxCell id="Y-gkaW2iaEDLu9Q06Ku3-48" value="- rank: Integer " style="text;align=left;verticalAlign=top;spacingLeft=4;spacingRight=4;overflow=hidden;rotatable=0;points=[[0,0.5],[1,0.5]];portConstraint=eastwest;" parent="Y-gkaW2iaEDLu9Q06Ku3-42" vertex="1">
          <mxGeometry y="104" width="160" height="26" as="geometry" />
        </mxCell>
        <mxCell id="Y-gkaW2iaEDLu9Q06Ku3-45" value="" style="line;html=1;strokeWidth=1;align=left;verticalAlign=middle;spacingTop=-1;spacingLeft=3;spacingRight=3;rotatable=0;labelPosition=right;points=[];portConstraint=eastwest;" parent="Y-gkaW2iaEDLu9Q06Ku3-42" vertex="1">
          <mxGeometry y="130" width="160" height="8" as="geometry" />
        </mxCell>
        <mxCell id="Y-gkaW2iaEDLu9Q06Ku3-52" value="" style="resizable=0;align=right;verticalAlign=bottom;labelBackgroundColor=none;fontSize=16;" parent="WIyWlLk6GJQsqaUBKTNV-1" connectable="0" vertex="1">
          <mxGeometry x="559.9952380952383" y="899.9980952380953" as="geometry" />
        </mxCell>
        <mxCell id="Y-gkaW2iaEDLu9Q06Ku3-57" value="Color" style="text;html=1;resizable=0;points=[];;align=center;verticalAlign=middle;labelBackgroundColor=none;rounded=0;shadow=0;strokeWidth=1;fontSize=12;" parent="WIyWlLk6GJQsqaUBKTNV-1" vertex="1" connectable="0">
          <mxGeometry x="390.0033333333335" y="129.99666666666678" as="geometry">
            <mxPoint x="102" y="498" as="offset" />
          </mxGeometry>
        </mxCell>
        <mxCell id="Y-gkaW2iaEDLu9Q06Ku3-60" value="0..1" style="resizable=0;align=right;verticalAlign=bottom;labelBackgroundColor=none;fontSize=16;" parent="WIyWlLk6GJQsqaUBKTNV-1" connectable="0" vertex="1">
          <mxGeometry x="349.9952380952383" y="899.9980952380953" as="geometry">
            <mxPoint x="23" y="-37" as="offset" />
          </mxGeometry>
        </mxCell>
        <mxCell id="Y-gkaW2iaEDLu9Q06Ku3-68" style="edgeStyle=elbowEdgeStyle;shape=connector;curved=0;rounded=0;orthogonalLoop=1;jettySize=auto;elbow=vertical;html=1;shadow=0;strokeColor=default;strokeWidth=1;align=center;verticalAlign=middle;fontFamily=Helvetica;fontSize=11;fontColor=default;labelBackgroundColor=default;startSize=10;endArrow=block;endFill=1;endSize=10;startArrow=diamond;startFill=1;" parent="WIyWlLk6GJQsqaUBKTNV-1" source="Y-gkaW2iaEDLu9Q06Ku3-62" target="Y-gkaW2iaEDLu9Q06Ku3-42" edge="1">
          <mxGeometry relative="1" as="geometry" />
        </mxCell>
        <mxCell id="Y-gkaW2iaEDLu9Q06Ku3-94" style="edgeStyle=elbowEdgeStyle;shape=connector;curved=0;rounded=0;orthogonalLoop=1;jettySize=auto;elbow=vertical;html=1;shadow=0;strokeColor=default;strokeWidth=1;align=center;verticalAlign=middle;fontFamily=Helvetica;fontSize=11;fontColor=default;labelBackgroundColor=default;startArrow=diamond;startFill=1;startSize=10;endArrow=block;endFill=1;endSize=10;" parent="WIyWlLk6GJQsqaUBKTNV-1" source="Y-gkaW2iaEDLu9Q06Ku3-62" target="Y-gkaW2iaEDLu9Q06Ku3-0" edge="1">
          <mxGeometry relative="1" as="geometry">
            <Array as="points">
              <mxPoint x="110" y="660" />
            </Array>
          </mxGeometry>
        </mxCell>
        <mxCell id="Y-gkaW2iaEDLu9Q06Ku3-62" value="Chessboard" style="swimlane;fontStyle=0;align=center;verticalAlign=top;childLayout=stackLayout;horizontal=1;startSize=26;horizontalStack=0;resizeParent=1;resizeLast=0;collapsible=1;marginBottom=0;rounded=0;shadow=0;strokeWidth=1;" parent="WIyWlLk6GJQsqaUBKTNV-1" vertex="1">
          <mxGeometry x="250" y="190" width="160" height="190" as="geometry">
            <mxRectangle x="130" y="380" width="160" height="26" as="alternateBounds" />
          </mxGeometry>
        </mxCell>
        <mxCell id="Y-gkaW2iaEDLu9Q06Ku3-67" value="" style="line;html=1;strokeWidth=1;align=left;verticalAlign=middle;spacingTop=-1;spacingLeft=3;spacingRight=3;rotatable=0;labelPosition=right;points=[];portConstraint=eastwest;" parent="Y-gkaW2iaEDLu9Q06Ku3-62" vertex="1">
          <mxGeometry y="26" width="160" height="8" as="geometry" />
        </mxCell>
        <mxCell id="Y-gkaW2iaEDLu9Q06Ku3-69" value="Squares" style="text;html=1;resizable=0;points=[];;align=center;verticalAlign=middle;labelBackgroundColor=none;rounded=0;shadow=0;strokeWidth=1;fontSize=12;" parent="WIyWlLk6GJQsqaUBKTNV-1" vertex="1" connectable="0">
          <mxGeometry x="260.0033333333335" y="-40.00333333333322" as="geometry">
            <mxPoint x="102" y="498" as="offset" />
          </mxGeometry>
        </mxCell>
        <mxCell id="Y-gkaW2iaEDLu9Q06Ku3-70" value="Square" style="text;html=1;resizable=0;points=[];;align=center;verticalAlign=middle;labelBackgroundColor=none;rounded=0;shadow=0;strokeWidth=1;fontSize=12;" parent="WIyWlLk6GJQsqaUBKTNV-1" vertex="1" connectable="0">
          <mxGeometry x="200.0033333333335" y="279.9966666666668" as="geometry">
            <mxPoint x="102" y="498" as="offset" />
          </mxGeometry>
        </mxCell>
        <mxCell id="Y-gkaW2iaEDLu9Q06Ku3-72" value="64" style="resizable=0;align=right;verticalAlign=bottom;labelBackgroundColor=none;fontSize=16;" parent="WIyWlLk6GJQsqaUBKTNV-1" connectable="0" vertex="1">
          <mxGeometry x="339.9952380952383" y="569.9980952380953" as="geometry">
            <mxPoint x="23" y="-37" as="offset" />
          </mxGeometry>
        </mxCell>
        <mxCell id="Y-gkaW2iaEDLu9Q06Ku3-77" style="edgeStyle=elbowEdgeStyle;shape=connector;curved=0;rounded=0;orthogonalLoop=1;jettySize=auto;elbow=vertical;html=1;shadow=0;strokeColor=default;strokeWidth=1;align=center;verticalAlign=middle;fontFamily=Helvetica;fontSize=11;fontColor=default;labelBackgroundColor=default;startSize=6;endArrow=block;endFill=1;endSize=10;" parent="WIyWlLk6GJQsqaUBKTNV-1" source="Y-gkaW2iaEDLu9Q06Ku3-74" target="Y-gkaW2iaEDLu9Q06Ku3-62" edge="1">
          <mxGeometry relative="1" as="geometry" />
        </mxCell>
        <mxCell id="Y-gkaW2iaEDLu9Q06Ku3-84" style="edgeStyle=elbowEdgeStyle;shape=connector;curved=0;rounded=0;orthogonalLoop=1;jettySize=auto;elbow=vertical;html=1;shadow=0;strokeColor=default;strokeWidth=1;align=center;verticalAlign=middle;fontFamily=Helvetica;fontSize=11;fontColor=default;labelBackgroundColor=default;startSize=6;endArrow=block;endFill=1;endSize=10;" parent="WIyWlLk6GJQsqaUBKTNV-1" source="Y-gkaW2iaEDLu9Q06Ku3-74" target="Y-gkaW2iaEDLu9Q06Ku3-82" edge="1">
          <mxGeometry relative="1" as="geometry" />
        </mxCell>
        <mxCell id="Y-gkaW2iaEDLu9Q06Ku3-108" style="edgeStyle=elbowEdgeStyle;shape=connector;curved=0;rounded=0;orthogonalLoop=1;jettySize=auto;elbow=vertical;html=1;shadow=0;strokeColor=default;strokeWidth=1;align=center;verticalAlign=middle;fontFamily=Helvetica;fontSize=11;fontColor=default;labelBackgroundColor=default;startArrow=none;startFill=0;startSize=10;endArrow=block;endFill=1;endSize=10;" parent="WIyWlLk6GJQsqaUBKTNV-1" source="Y-gkaW2iaEDLu9Q06Ku3-74" target="Y-gkaW2iaEDLu9Q06Ku3-103" edge="1">
          <mxGeometry relative="1" as="geometry">
            <Array as="points">
              <mxPoint x="1130" y="110" />
            </Array>
          </mxGeometry>
        </mxCell>
        <mxCell id="Y-gkaW2iaEDLu9Q06Ku3-74" value="&lt;&lt;singleton&gt;&gt;&#xa;Game&#xa;" style="swimlane;fontStyle=0;align=center;verticalAlign=top;childLayout=stackLayout;horizontal=1;startSize=40;horizontalStack=0;resizeParent=1;resizeLast=0;collapsible=1;marginBottom=0;rounded=0;shadow=0;strokeWidth=1;" parent="WIyWlLk6GJQsqaUBKTNV-1" vertex="1">
          <mxGeometry x="690" y="190" width="160" height="190" as="geometry">
            <mxRectangle x="130" y="380" width="160" height="26" as="alternateBounds" />
          </mxGeometry>
        </mxCell>
        <mxCell id="Y-gkaW2iaEDLu9Q06Ku3-75" value="" style="line;html=1;strokeWidth=1;align=left;verticalAlign=middle;spacingTop=-1;spacingLeft=3;spacingRight=3;rotatable=0;labelPosition=right;points=[];portConstraint=eastwest;" parent="Y-gkaW2iaEDLu9Q06Ku3-74" vertex="1">
          <mxGeometry y="40" width="160" height="8" as="geometry" />
        </mxCell>
        <mxCell id="Y-gkaW2iaEDLu9Q06Ku3-80" value="Color" style="text;html=1;resizable=0;points=[];;align=center;verticalAlign=middle;labelBackgroundColor=none;rounded=0;shadow=0;strokeWidth=1;fontSize=12;" parent="WIyWlLk6GJQsqaUBKTNV-1" vertex="1" connectable="0">
          <mxGeometry x="390.0033333333335" y="389.9966666666668" as="geometry">
            <mxPoint x="102" y="498" as="offset" />
          </mxGeometry>
        </mxCell>
        <mxCell id="Y-gkaW2iaEDLu9Q06Ku3-81" value="ChessBoard" style="text;html=1;resizable=0;points=[];;align=center;verticalAlign=middle;labelBackgroundColor=none;rounded=0;shadow=0;strokeWidth=1;fontSize=12;" parent="WIyWlLk6GJQsqaUBKTNV-1" vertex="1" connectable="0">
          <mxGeometry x="450.0033333333335" y="-230.00333333333322" as="geometry">
            <mxPoint x="102" y="498" as="offset" />
          </mxGeometry>
        </mxCell>
        <mxCell id="Y-gkaW2iaEDLu9Q06Ku3-90" style="edgeStyle=elbowEdgeStyle;shape=connector;curved=0;rounded=0;orthogonalLoop=1;jettySize=auto;elbow=vertical;html=1;shadow=0;strokeColor=default;strokeWidth=1;align=center;verticalAlign=middle;fontFamily=Helvetica;fontSize=11;fontColor=default;labelBackgroundColor=default;startSize=6;endArrow=block;endFill=1;endSize=10;" parent="WIyWlLk6GJQsqaUBKTNV-1" source="Y-gkaW2iaEDLu9Q06Ku3-82" target="Y-gkaW2iaEDLu9Q06Ku3-6" edge="1">
          <mxGeometry relative="1" as="geometry">
            <Array as="points">
              <mxPoint x="880" y="910" />
            </Array>
          </mxGeometry>
        </mxCell>
        <mxCell id="Y-gkaW2iaEDLu9Q06Ku3-129" style="edgeStyle=elbowEdgeStyle;shape=connector;curved=0;rounded=0;orthogonalLoop=1;jettySize=auto;elbow=vertical;html=1;shadow=0;strokeColor=default;strokeWidth=1;align=center;verticalAlign=middle;fontFamily=Helvetica;fontSize=11;fontColor=default;labelBackgroundColor=default;startSize=6;endArrow=block;endFill=1;endSize=10;" parent="WIyWlLk6GJQsqaUBKTNV-1" source="Y-gkaW2iaEDLu9Q06Ku3-82" target="Y-gkaW2iaEDLu9Q06Ku3-122" edge="1">
          <mxGeometry relative="1" as="geometry">
            <Array as="points">
              <mxPoint x="1150" y="600" />
            </Array>
          </mxGeometry>
        </mxCell>
        <mxCell id="Y-gkaW2iaEDLu9Q06Ku3-82" value="Player" style="swimlane;fontStyle=0;align=center;verticalAlign=top;childLayout=stackLayout;horizontal=1;startSize=26;horizontalStack=0;resizeParent=1;resizeLast=0;collapsible=1;marginBottom=0;rounded=0;shadow=0;strokeWidth=1;" parent="WIyWlLk6GJQsqaUBKTNV-1" vertex="1">
          <mxGeometry x="1120" y="190" width="160" height="190" as="geometry">
            <mxRectangle x="130" y="380" width="160" height="26" as="alternateBounds" />
          </mxGeometry>
        </mxCell>
        <mxCell id="Y-gkaW2iaEDLu9Q06Ku3-83" value="" style="line;html=1;strokeWidth=1;align=left;verticalAlign=middle;spacingTop=-1;spacingLeft=3;spacingRight=3;rotatable=0;labelPosition=right;points=[];portConstraint=eastwest;" parent="Y-gkaW2iaEDLu9Q06Ku3-82" vertex="1">
          <mxGeometry y="26" width="160" height="8" as="geometry" />
        </mxCell>
        <mxCell id="Y-gkaW2iaEDLu9Q06Ku3-88" value="Player" style="text;html=1;resizable=0;points=[];;align=center;verticalAlign=middle;labelBackgroundColor=none;rounded=0;shadow=0;strokeWidth=1;fontSize=12;" parent="WIyWlLk6GJQsqaUBKTNV-1" vertex="1" connectable="0">
          <mxGeometry x="890.0033333333336" y="-230.00333333333322" as="geometry">
            <mxPoint x="102" y="498" as="offset" />
          </mxGeometry>
        </mxCell>
        <mxCell id="Y-gkaW2iaEDLu9Q06Ku3-93" value="Color" style="text;html=1;resizable=0;points=[];;align=center;verticalAlign=middle;labelBackgroundColor=none;rounded=0;shadow=0;strokeWidth=1;fontSize=12;" parent="WIyWlLk6GJQsqaUBKTNV-1" vertex="1" connectable="0">
          <mxGeometry x="1120.0033333333336" y="-70.00333333333322" as="geometry">
            <mxPoint x="102" y="498" as="offset" />
          </mxGeometry>
        </mxCell>
        <mxCell id="Y-gkaW2iaEDLu9Q06Ku3-95" value="Pieces" style="text;html=1;resizable=0;points=[];;align=center;verticalAlign=middle;labelBackgroundColor=none;rounded=0;shadow=0;strokeWidth=1;fontSize=12;" parent="WIyWlLk6GJQsqaUBKTNV-1" vertex="1" connectable="0">
          <mxGeometry x="30.0033333333335" y="-230.00333333333322" as="geometry">
            <mxPoint x="102" y="498" as="offset" />
          </mxGeometry>
        </mxCell>
        <mxCell id="Y-gkaW2iaEDLu9Q06Ku3-97" value="32" style="resizable=0;align=right;verticalAlign=bottom;labelBackgroundColor=none;fontSize=16;" parent="WIyWlLk6GJQsqaUBKTNV-1" connectable="0" vertex="1">
          <mxGeometry x="209.99523809523828" y="989.9980952380953" as="geometry">
            <mxPoint x="23" y="-37" as="offset" />
          </mxGeometry>
        </mxCell>
        <mxCell id="Y-gkaW2iaEDLu9Q06Ku3-105" style="edgeStyle=elbowEdgeStyle;shape=connector;curved=0;rounded=0;orthogonalLoop=1;jettySize=auto;elbow=vertical;html=1;shadow=0;strokeColor=default;strokeWidth=1;align=center;verticalAlign=middle;fontFamily=Helvetica;fontSize=11;fontColor=default;labelBackgroundColor=default;startArrow=none;startFill=0;startSize=10;endArrow=block;endFill=0;endSize=10;" parent="WIyWlLk6GJQsqaUBKTNV-1" source="Y-gkaW2iaEDLu9Q06Ku3-103" target="Y-gkaW2iaEDLu9Q06Ku3-82" edge="1">
          <mxGeometry relative="1" as="geometry" />
        </mxCell>
        <mxCell id="Y-gkaW2iaEDLu9Q06Ku3-103" value="Computer" style="swimlane;fontStyle=0;align=center;verticalAlign=top;childLayout=stackLayout;horizontal=1;startSize=26;horizontalStack=0;resizeParent=1;resizeLast=0;collapsible=1;marginBottom=0;rounded=0;shadow=0;strokeWidth=1;" parent="WIyWlLk6GJQsqaUBKTNV-1" vertex="1">
          <mxGeometry x="1420" y="190" width="160" height="190" as="geometry">
            <mxRectangle x="130" y="380" width="160" height="26" as="alternateBounds" />
          </mxGeometry>
        </mxCell>
        <mxCell id="Y-gkaW2iaEDLu9Q06Ku3-104" value="" style="line;html=1;strokeWidth=1;align=left;verticalAlign=middle;spacingTop=-1;spacingLeft=3;spacingRight=3;rotatable=0;labelPosition=right;points=[];portConstraint=eastwest;" parent="Y-gkaW2iaEDLu9Q06Ku3-103" vertex="1">
          <mxGeometry y="26" width="160" height="8" as="geometry" />
        </mxCell>
        <mxCell id="Y-gkaW2iaEDLu9Q06Ku3-110" value="Computer" style="text;html=1;resizable=0;points=[];;align=center;verticalAlign=middle;labelBackgroundColor=none;rounded=0;shadow=0;strokeWidth=1;fontSize=12;" parent="WIyWlLk6GJQsqaUBKTNV-1" vertex="1" connectable="0">
          <mxGeometry x="700.0033333333336" y="-400.0033333333332" as="geometry">
            <mxPoint x="102" y="498" as="offset" />
          </mxGeometry>
        </mxCell>
        <mxCell id="Y-gkaW2iaEDLu9Q06Ku3-113" value="&lt;&lt;enum&gt;&gt;&#xa;PieceType&#xa;" style="swimlane;fontStyle=0;align=center;verticalAlign=top;childLayout=stackLayout;horizontal=1;startSize=40;horizontalStack=0;resizeParent=1;resizeLast=0;collapsible=1;marginBottom=0;rounded=0;shadow=0;strokeWidth=1;" parent="WIyWlLk6GJQsqaUBKTNV-1" vertex="1">
          <mxGeometry x="120" y="1160" width="160" height="204" as="geometry">
            <mxRectangle x="130" y="380" width="160" height="26" as="alternateBounds" />
          </mxGeometry>
        </mxCell>
        <mxCell id="Y-gkaW2iaEDLu9Q06Ku3-114" value="+ PAWN" style="text;align=left;verticalAlign=top;spacingLeft=4;spacingRight=4;overflow=hidden;rotatable=0;points=[[0,0.5],[1,0.5]];portConstraint=eastwest;" parent="Y-gkaW2iaEDLu9Q06Ku3-113" vertex="1">
          <mxGeometry y="40" width="160" height="26" as="geometry" />
        </mxCell>
        <mxCell id="Y-gkaW2iaEDLu9Q06Ku3-115" value="+ KNIGHT" style="text;align=left;verticalAlign=top;spacingLeft=4;spacingRight=4;overflow=hidden;rotatable=0;points=[[0,0.5],[1,0.5]];portConstraint=eastwest;" parent="Y-gkaW2iaEDLu9Q06Ku3-113" vertex="1">
          <mxGeometry y="66" width="160" height="26" as="geometry" />
        </mxCell>
        <mxCell id="Y-gkaW2iaEDLu9Q06Ku3-120" value="+ BISHOP" style="text;align=left;verticalAlign=top;spacingLeft=4;spacingRight=4;overflow=hidden;rotatable=0;points=[[0,0.5],[1,0.5]];portConstraint=eastwest;" parent="Y-gkaW2iaEDLu9Q06Ku3-113" vertex="1">
          <mxGeometry y="92" width="160" height="26" as="geometry" />
        </mxCell>
        <mxCell id="Y-gkaW2iaEDLu9Q06Ku3-121" value="+ ROOK" style="text;align=left;verticalAlign=top;spacingLeft=4;spacingRight=4;overflow=hidden;rotatable=0;points=[[0,0.5],[1,0.5]];portConstraint=eastwest;" parent="Y-gkaW2iaEDLu9Q06Ku3-113" vertex="1">
          <mxGeometry y="118" width="160" height="26" as="geometry" />
        </mxCell>
        <mxCell id="_SLLkS9i5o8ntQF4vEWm-0" value="+ QUEEN" style="text;align=left;verticalAlign=top;spacingLeft=4;spacingRight=4;overflow=hidden;rotatable=0;points=[[0,0.5],[1,0.5]];portConstraint=eastwest;" vertex="1" parent="Y-gkaW2iaEDLu9Q06Ku3-113">
          <mxGeometry y="144" width="160" height="26" as="geometry" />
        </mxCell>
        <mxCell id="_SLLkS9i5o8ntQF4vEWm-1" value="+ KING" style="text;align=left;verticalAlign=top;spacingLeft=4;spacingRight=4;overflow=hidden;rotatable=0;points=[[0,0.5],[1,0.5]];portConstraint=eastwest;" vertex="1" parent="Y-gkaW2iaEDLu9Q06Ku3-113">
          <mxGeometry y="170" width="160" height="26" as="geometry" />
        </mxCell>
        <mxCell id="Y-gkaW2iaEDLu9Q06Ku3-116" value="" style="line;html=1;strokeWidth=1;align=left;verticalAlign=middle;spacingTop=-1;spacingLeft=3;spacingRight=3;rotatable=0;labelPosition=right;points=[];portConstraint=eastwest;" parent="Y-gkaW2iaEDLu9Q06Ku3-113" vertex="1">
          <mxGeometry y="196" width="160" height="8" as="geometry" />
        </mxCell>
        <mxCell id="Y-gkaW2iaEDLu9Q06Ku3-119" value="Type" style="text;html=1;resizable=0;points=[];;align=center;verticalAlign=middle;labelBackgroundColor=none;rounded=0;shadow=0;strokeWidth=1;fontSize=12;" parent="WIyWlLk6GJQsqaUBKTNV-1" vertex="1" connectable="0">
          <mxGeometry x="120.0033333333335" y="579.9966666666668" as="geometry">
            <mxPoint x="102" y="498" as="offset" />
          </mxGeometry>
        </mxCell>
        <mxCell id="Y-gkaW2iaEDLu9Q06Ku3-134" style="edgeStyle=elbowEdgeStyle;shape=connector;curved=0;rounded=0;orthogonalLoop=1;jettySize=auto;elbow=vertical;html=1;shadow=0;strokeColor=default;strokeWidth=1;align=center;verticalAlign=middle;fontFamily=Helvetica;fontSize=11;fontColor=default;labelBackgroundColor=default;startSize=6;endArrow=block;endFill=1;endSize=10;" parent="WIyWlLk6GJQsqaUBKTNV-1" source="Y-gkaW2iaEDLu9Q06Ku3-122" target="Y-gkaW2iaEDLu9Q06Ku3-0" edge="1">
          <mxGeometry relative="1" as="geometry">
            <Array as="points">
              <mxPoint x="500" y="990" />
            </Array>
          </mxGeometry>
        </mxCell>
        <mxCell id="_SLLkS9i5o8ntQF4vEWm-7" style="edgeStyle=elbowEdgeStyle;shape=connector;curved=0;rounded=0;orthogonalLoop=1;jettySize=auto;elbow=vertical;html=1;shadow=0;strokeColor=default;strokeWidth=1;align=center;verticalAlign=middle;fontFamily=Helvetica;fontSize=11;fontColor=default;labelBackgroundColor=default;startSize=6;endArrow=block;endFill=1;endSize=10;" edge="1" parent="WIyWlLk6GJQsqaUBKTNV-1" source="Y-gkaW2iaEDLu9Q06Ku3-122" target="Y-gkaW2iaEDLu9Q06Ku3-42">
          <mxGeometry relative="1" as="geometry">
            <Array as="points">
              <mxPoint x="660" y="590" />
            </Array>
          </mxGeometry>
        </mxCell>
        <mxCell id="Y-gkaW2iaEDLu9Q06Ku3-122" value="Move" style="swimlane;fontStyle=0;align=center;verticalAlign=top;childLayout=stackLayout;horizontal=1;startSize=26;horizontalStack=0;resizeParent=1;resizeLast=0;collapsible=1;marginBottom=0;rounded=0;shadow=0;strokeWidth=1;" parent="WIyWlLk6GJQsqaUBKTNV-1" vertex="1">
          <mxGeometry x="900" y="550" width="160" height="190" as="geometry">
            <mxRectangle x="130" y="380" width="160" height="26" as="alternateBounds" />
          </mxGeometry>
        </mxCell>
        <mxCell id="Y-gkaW2iaEDLu9Q06Ku3-127" value="" style="line;html=1;strokeWidth=1;align=left;verticalAlign=middle;spacingTop=-1;spacingLeft=3;spacingRight=3;rotatable=0;labelPosition=right;points=[];portConstraint=eastwest;" parent="Y-gkaW2iaEDLu9Q06Ku3-122" vertex="1">
          <mxGeometry y="26" width="160" height="8" as="geometry" />
        </mxCell>
        <mxCell id="Y-gkaW2iaEDLu9Q06Ku3-130" value="*" style="resizable=0;align=right;verticalAlign=bottom;labelBackgroundColor=none;fontSize=16;" parent="WIyWlLk6GJQsqaUBKTNV-1" connectable="0" vertex="1">
          <mxGeometry x="1020.0052380952383" y="349.9980952380953" as="geometry">
            <mxPoint x="71" y="250" as="offset" />
          </mxGeometry>
        </mxCell>
        <mxCell id="Y-gkaW2iaEDLu9Q06Ku3-131" value="Moves" style="text;html=1;resizable=0;points=[];;align=center;verticalAlign=middle;labelBackgroundColor=none;rounded=0;shadow=0;strokeWidth=1;fontSize=12;" parent="WIyWlLk6GJQsqaUBKTNV-1" vertex="1" connectable="0">
          <mxGeometry x="1020.0033333333336" y="-20.003333333333217" as="geometry">
            <mxPoint x="102" y="498" as="offset" />
          </mxGeometry>
        </mxCell>
        <mxCell id="Y-gkaW2iaEDLu9Q06Ku3-135" value="PieceToMove" style="text;html=1;resizable=0;points=[];;align=center;verticalAlign=middle;labelBackgroundColor=none;rounded=0;shadow=0;strokeWidth=1;fontSize=12;" parent="WIyWlLk6GJQsqaUBKTNV-1" vertex="1" connectable="0">
          <mxGeometry x="390.0033333333335" y="479.9966666666668" as="geometry">
            <mxPoint x="102" y="498" as="offset" />
          </mxGeometry>
        </mxCell>
        <mxCell id="_SLLkS9i5o8ntQF4vEWm-9" value="Piece" style="text;html=1;resizable=0;points=[];;align=center;verticalAlign=middle;labelBackgroundColor=none;rounded=0;shadow=0;strokeWidth=1;fontSize=12;" vertex="1" connectable="0" parent="WIyWlLk6GJQsqaUBKTNV-1">
          <mxGeometry x="250.0033333333335" y="329.9966666666668" as="geometry">
            <mxPoint x="102" y="498" as="offset" />
          </mxGeometry>
        </mxCell>
        <mxCell id="_SLLkS9i5o8ntQF4vEWm-11" value="SquareTo" style="text;html=1;resizable=0;points=[];;align=center;verticalAlign=middle;labelBackgroundColor=none;rounded=0;shadow=0;strokeWidth=1;fontSize=12;" vertex="1" connectable="0" parent="WIyWlLk6GJQsqaUBKTNV-1">
          <mxGeometry x="559.9933333333336" y="69.99666666666678" as="geometry">
            <mxPoint x="102" y="498" as="offset" />
          </mxGeometry>
        </mxCell>
      </root>
    </mxGraphModel>
  </diagram>
</mxfile>
